<svg width="50" height="50" viewBox="0 0 50 50" fill="none" xmlns="http://www.w3.org/2000/svg">
<rect width="50" height="50" rx="10" fill="#1B090E"/>
<path d="M23.1021 20.6053C23.9465 19.0904 24.3688 18.333 25 18.333C25.6312 18.333 26.0535 19.0904 26.8979 20.6053L27.1164 20.9972C27.3563 21.4276 27.4763 21.6429 27.6633 21.7849C27.8504 21.9269 28.0835 21.9796 28.5495 22.085L28.9736 22.181C30.6135 22.5521 31.4333 22.7375 31.6284 23.3649C31.8235 23.9921 31.2645 24.6457 30.1467 25.953L29.8573 26.2911C29.5397 26.6626 29.3809 26.8483 29.3095 27.0782C29.238 27.3079 29.262 27.5558 29.31 28.0514L29.3537 28.5026C29.5228 30.2467 29.6072 31.1189 29.0965 31.5065C28.5859 31.8942 27.8183 31.5407 26.2829 30.8338L25.8857 30.6509C25.4493 30.4501 25.2312 30.3495 25 30.3495C24.7688 30.3495 24.5507 30.4501 24.1143 30.6509L23.7171 30.8338C22.1818 31.5407 21.4141 31.8942 20.9034 31.5065C20.3928 31.1189 20.4773 30.2467 20.6463 28.5026L20.69 28.0514C20.738 27.5558 20.762 27.3079 20.6906 27.0782C20.6191 26.8483 20.4603 26.6626 20.1426 26.2911L19.8534 25.953C18.7355 24.6457 18.1766 23.9921 18.3716 23.3649C18.5667 22.7375 19.3866 22.5521 21.0264 22.181L21.4506 22.085C21.9166 21.9796 22.1496 21.9269 22.3367 21.7849C22.5237 21.6429 22.6437 21.4276 22.8836 20.9972L23.1021 20.6053Z" stroke="#F23B69" stroke-width="1.28"/>
<path d="M25 11.6665V14.3332" stroke="#F23B69" stroke-width="1.28" stroke-linecap="round"/>
<path d="M25 35.6665V38.3332" stroke="#F23B69" stroke-width="1.28" stroke-linecap="round"/>
<path d="M11.6667 25H14.3333" stroke="#F23B69" stroke-width="1.28" stroke-linecap="round"/>
<path d="M35.6667 25H38.3333" stroke="#F23B69" stroke-width="1.28" stroke-linecap="round"/>
<path d="M17 32.9998L17.4574 32.5425" stroke="#F23B69" stroke-width="1.28" stroke-linecap="round"/>
<path d="M32.5423 17.4577L33 17" stroke="#F23B69" stroke-width="1.28" stroke-linecap="round"/>
<path d="M33 32.9998L32.5427 32.5425" stroke="#F23B69" stroke-width="1.28" stroke-linecap="round"/>
<path d="M17.4577 17.4577L17 17" stroke="#F23B69" stroke-width="1.28" stroke-linecap="round"/>
</svg>
